<svg xmlns="http://www.w3.org/2000/svg" viewBox="0 0 150 163.07"><g id="Layer_2" data-name="Layer 2"><g id="Layer_1-2" data-name="Layer 1"><path d="M144.72,122.62l-5.28-3.75h0l-5-3.57h0l-5.25-3.73h0l-5-3.58a50.61,50.61,0,0,1-7.32,9.15l-10.73-11.52,4-4.06V88.14H120V65.38H99.48l-4.17-5.26,10.4-10.39V37.59a50.62,50.62,0,0,1,18.58,17.72l5-3.55v0l5.26-3.69v0l5.05-3.55a69,69,0,1,0-7.86,84L126.73,125A62.76,62.76,0,1,1,131,43l-5.26,3.69A56.23,56.23,0,0,0,81.53,25.19c-1.9,0-3.78.1-5.64.28l1,6.11c1.55-.14,3.11-.23,4.69-.23a49.83,49.83,0,0,1,21.2,4.73V48.49L92.66,58.56H76.2V48.67H66.31V33.74c1.46-.46,2.93-.87,4.44-1.21l-1-6.1A56.24,56.24,0,0,0,26.43,93.2h0c0,.14.07.26.1.4.28,1.25.58,2.5.94,3.72l0,.1c.37,1.25.79,2.49,1.24,3.7.12.32.25.63.37.94s.18.42.27.64l5.42-3.12a49.37,49.37,0,0,1-2-6.38h0a50.38,50.38,0,0,1-1.38-11.67,49.76,49.76,0,0,1,4.2-20H53.44v9.89h9.89V82.52H50.17V97.84l-12.81,7.39v0L32,108.29c.62,1.14,1.27,2.27,2,3.37l0,0c.11.18.25.36.37.55.28.43.58.86.88,1.29.46.66.93,1.32,1.42,2,.3.39.6.79.91,1.17.55.7,1.13,1.38,1.72,2l.79.9a56.17,56.17,0,0,0,73.56,8.21l-3.78-4.87a50,50,0,0,1-57.52-.65c-1.1-.79-2.17-1.63-3.2-2.51l-.57-.51c-.85-.74-1.67-1.51-2.47-2.31-.21-.21-.42-.41-.62-.62-.92-1-1.8-1.93-2.64-3l-.45-.57c-.69-.87-1.35-1.75-2-2.66l-.61-.87c-.3-.46-.55-1-.84-1.42l12.71-7.33,11.68,11.68v6.84H86.09V114h11.6l5.65-5.65.56-.55,12,12.86,2.61,3.36a56.54,56.54,0,0,0,7.06-7.45l5.26,3.73h0l5,3.57h0l5.29,3.76a75.34,75.34,0,1,1,1.7-90c.74,1,1.4,2.1,2.08,3.16L150,37.26c-.7-1.07-1.41-2.14-2.16-3.18a81.54,81.54,0,1,0-.07,95c.69-1,1.34-1.92,2-2.89l-5-3.57ZM100.24,68.36H117v16.8h-16.8Zm-46.8-9.8H37A50.47,50.47,0,0,1,63.33,34.81V48.67H53.44Zm3,9.89V51.65h16.8v16.8Zm26.69,47.63H66.31V99.28h16.8ZM96.46,111H86.09V96.3H63.33V108L53.15,97.83V85.5H66.31V71.43H76.2V61.54H92.63l4.63,5.85V88.14h9.89v12.19Z"/></g></g></svg>